<svg xmlns="http://www.w3.org/2000/svg" width="300" height="300" fill="none" xmlns:v="https://vecta.io/nano"><g clip-path="url(#A)" fill-rule="evenodd"><path opacity=".2" d="M150 28.125c-32.323 0-63.323 12.84-86.179 35.696S28.125 117.677 28.125 150s12.84 63.323 35.696 86.179 53.856 35.696 86.179 35.696 63.323-12.84 86.179-35.696 35.696-53.856 35.696-86.179-12.84-63.323-35.696-86.179S182.323 28.125 150 28.125zM0 150A150 150 0 0 1 150 0a150 150 0 0 1 106.066 43.934C284.196 72.064 300 110.218 300 150s-15.804 77.936-43.934 106.066S189.782 300 150 300s-77.936-15.804-106.066-43.934A150 150 0 0 1 0 150z" fill="#cfcfcf"/><path d="M135.938 14.063c0-3.73 1.481-7.306 4.118-9.944S146.27 0 150 0a150 150 0 0 1 106.066 43.934C284.196 72.064 300 110.218 300 150c0 3.73-1.482 7.306-4.119 9.944a14.06 14.06 0 0 1-19.887 0c-2.637-2.638-4.119-6.214-4.119-9.944 0-32.323-12.84-63.323-35.696-86.179S182.323 28.125 150 28.125c-3.73 0-7.306-1.482-9.944-4.119s-4.118-6.214-4.118-9.944z" fill="#1db954"/></g><defs><clipPath id="A"><path fill="#fff" d="M0 0h300v300H0z"/></clipPath></defs></svg>