<svg xmlns="http://www.w3.org/2000/svg" width="30" height="30" fill="none" xmlns:v="https://vecta.io/nano"><path d="M15 30a15.02 15.02 0 0 0 15-15A15.02 15.02 0 0 0 15 0 15.02 15.02 0 0 0 0 15a15.02 15.02 0 0 0 15 15zm4.256-20.127c0-.143.08-.296.255-.296h.41c.167 0 .308.133.308.29v10.246c0 .149-.17.296-.344.296h-.349c-.154 0-.28-.139-.28-.309V9.873zm-9.484.605c0-.351.061-.537.112-.631.066-.12.139-.136.203-.136.087 0 .244.037.495.211l6.138 4.295c.29.201.45.464.45.739 0 .294-.183.59-.505.813l-6.083 4.293c-.252.175-.409.212-.496.212-.285 0-.315-.536-.315-.766v-9.029z" fill="#8b8b8b"/></svg>