<svg xmlns="http://www.w3.org/2000/svg" width="30" height="30" fill="none" xmlns:v="https://vecta.io/nano"><g clip-path="url(#A)"><path d="M15 0A15.02 15.02 0 0 0 0 15a15.02 15.02 0 0 0 15 15 15.02 15.02 0 0 0 15-15A15.02 15.02 0 0 0 15 0zm-4.256 20.127c0 .142-.08.296-.255.296h-.41c-.167 0-.308-.133-.308-.29V9.887c0-.149.17-.296.344-.296h.349c.154 0 .28.139.28.309v10.227zm9.484-.605c0 .351-.061.537-.112.631-.066.12-.139.136-.203.136-.087 0-.244-.037-.495-.211l-6.138-4.295c-.29-.201-.45-.464-.45-.739 0-.294.183-.59.505-.813l6.083-4.293c.252-.175.409-.212.496-.212.285 0 .315.536.315.767v9.029z" fill="#8b8b8b"/></g><defs><clipPath id="A"><path fill="#fff" d="M0 0h30v30H0z"/></clipPath></defs></svg>