<svg xmlns="http://www.w3.org/2000/svg" width="30" height="30" fill="#00da5a" xmlns:v="https://vecta.io/nano"><path d="M24.549 19.735c-.166-.145-.391-.162-.571-.044s-.285.351-.268.594l.144 1.938a8.84 8.84 0 0 1-1.918-.548c-.781-.326-1.477-.754-2.124-1.27-.969-.774-1.83-1.758-2.64-2.896l-.91-1.368-.472.837-1.853 3.121c.608.882 1.269 1.742 2.012 2.54 1.159 1.245 2.523 2.342 4.135 3.111 1.149.55 2.42.925 3.811 1.096l-.185 2.483c-.017.242.087.475.268.593s.405.102.571-.043l5.238-4.575a.66.66 0 0 0 .213-.496.66.66 0 0 0-.213-.497l-5.238-4.574zM4.523 8.324a8.85 8.85 0 0 1 2.122 1.27c.97.774 1.832 1.758 2.641 2.895l.91 1.369.473-.837L12.522 9.9c-.608-.883-1.269-1.742-2.012-2.54-1.16-1.245-2.524-2.342-4.136-3.11S2.915 3.045.831 3.047H0v4.582h.831c1.453.002 2.65.26 3.692.695zm12.382 4.551a17.93 17.93 0 0 1 1.675-2.129c.886-.95 1.845-1.71 2.973-2.25a8.68 8.68 0 0 1 2.301-.721l-.144 1.94c-.017.243.087.475.268.594s.405.101.571-.044l5.238-4.574A.66.66 0 0 0 30 5.193a.66.66 0 0 0-.213-.496L24.549.122c-.166-.145-.391-.162-.571-.043s-.285.351-.268.593l.185 2.482a12.34 12.34 0 0 0-3.265.852c-1.11.463-2.111 1.08-3.011 1.799-1.35 1.079-2.468 2.38-3.44 3.746s-1.802 2.802-2.579 4.191l-2.046 3.384c-.532.78-1.086 1.496-1.675 2.129-.886.95-1.845 1.71-2.973 2.25s-2.441.864-4.076.866H0v4.583h.831c1.853.002 3.519-.34 4.998-.959a12.57 12.57 0 0 0 3.009-1.799c1.351-1.079 2.468-2.38 3.44-3.745s1.804-2.802 2.581-4.191l2.046-3.384z"/></svg>